<?xml version="1.0" standalone="no"?>
<!DOCTYPE svg PUBLIC "-//W3C//DTD SVG 20010904//EN"
 "http://www.w3.org/TR/2001/REC-SVG-20010904/DTD/svg10.dtd">
<svg version="1.0" xmlns="http://www.w3.org/2000/svg"
 width="486.000000pt" height="216.000000pt" viewBox="0 0 486.000000 216.000000"
 preserveAspectRatio="xMidYMid meet">

<g transform="translate(0.000000,216.000000) scale(0.100000,-0.100000)"
fill="#000000" stroke="none">
<path d="M391 2146 c-8 -10 -9 -16 -1 -21 5 -3 13 1 16 10 9 22 -1 29 -15 11z"/>
<path d="M4076 1924 c-9 -8 -16 -19 -16 -24 0 -11 29 -40 40 -40 11 0 40 29
40 40 0 11 -29 40 -40 40 -5 0 -16 -7 -24 -16z"/>
<path d="M980 1811 c-8 -5 -37 -19 -65 -31 -34 -16 -79 -53 -142 -119 -51 -53
-93 -102 -93 -108 0 -7 -4 -13 -10 -13 -6 0 -10 -43 -10 -110 0 -60 4 -110 9
-110 4 0 11 -20 14 -45 4 -24 11 -53 16 -62 28 -57 51 -112 51 -127 0 -9 4
-16 9 -16 5 0 12 -12 15 -27 8 -36 38 -93 48 -93 5 0 8 -7 8 -15 0 -9 7 -18
15 -21 11 -5 15 -23 15 -74 0 -38 4 -71 9 -74 4 -3 11 -33 15 -65 4 -33 11
-63 15 -66 5 -2 12 -20 15 -38 11 -57 42 -111 93 -158 47 -44 146 -99 177 -99
9 0 16 -4 16 -10 0 -5 17 -12 38 -16 20 -4 42 -10 47 -15 6 -4 38 -11 73 -15
34 -3 62 -11 62 -15 0 -5 24 -9 54 -9 35 0 58 -5 66 -15 7 -8 33 -24 59 -36
25 -12 53 -25 62 -30 9 -4 33 -11 53 -14 20 -4 38 -11 41 -15 3 -5 34 -12 70
-15 36 -4 65 -11 65 -15 0 -5 29 -12 65 -15 36 -4 65 -11 65 -16 0 -5 61 -9
135 -9 74 0 135 4 135 9 0 5 16 12 35 15 19 4 35 11 35 16 0 4 14 11 30 15 17
4 30 11 30 16 0 5 6 9 13 9 19 0 76 59 83 86 3 13 4 79 2 146 -4 111 -7 127
-31 168 -15 25 -30 51 -34 59 -3 8 -26 33 -50 56 -47 45 -56 84 -28 121 8 10
15 28 15 39 0 11 6 32 14 47 8 15 17 42 21 60 4 18 11 38 16 44 4 5 11 65 15
132 4 67 11 122 16 122 4 0 8 68 8 150 0 127 2 150 15 150 8 0 15 5 15 10 0
12 143 14 168 1 9 -4 35 -16 57 -27 48 -22 85 -53 85 -71 0 -7 5 -13 10 -13 6
0 10 -31 10 -74 0 -89 6 -112 26 -95 16 13 20 179 5 179 -5 0 -12 13 -16 29
-3 15 -16 33 -28 40 -30 15 -59 34 -75 49 -7 6 -24 12 -37 12 -13 0 -27 5 -30
10 -3 6 -42 10 -85 10 -43 0 -82 -4 -85 -10 -3 -5 -13 -10 -21 -10 -11 0 -14
19 -14 93 0 89 -1 94 -28 120 -35 34 -60 35 -68 2 -7 -27 3 -97 15 -105 5 -3
11 -28 14 -56 6 -51 6 -52 -25 -58 -17 -3 -69 -6 -117 -6 -78 0 -89 -2 -113
-25 -15 -14 -31 -25 -36 -25 -10 0 -82 -73 -82 -83 0 -4 -8 -16 -17 -27 -13
-15 -30 -20 -69 -20 l-51 0 -7 50 c-4 27 -11 52 -16 55 -6 3 -10 13 -10 21 0
9 -16 35 -35 58 -19 24 -35 46 -35 50 0 22 -77 69 -132 81 -16 4 -41 13 -56
21 -15 8 -35 14 -44 14 -9 0 -19 4 -22 9 -4 5 -24 12 -46 16 -22 4 -40 11 -40
15 0 5 -16 12 -35 16 -19 3 -38 10 -41 15 -7 11 -384 11 -404 0z m394 -40 c3
-5 22 -12 42 -16 20 -3 44 -10 53 -14 60 -30 111 -50 144 -56 20 -4 37 -11 37
-16 0 -5 12 -9 26 -9 19 0 40 -14 73 -49 84 -88 96 -109 107 -176 l6 -45 -105
0 c-60 0 -109 -4 -112 -10 -3 -5 -14 -10 -23 -10 -18 0 -112 -87 -112 -105 -1
-5 -14 -21 -30 -35 -17 -13 -30 -29 -30 -36 0 -6 -7 -17 -15 -24 -8 -7 -15
-25 -15 -40 0 -31 48 -74 96 -86 16 -4 31 -11 34 -15 3 -4 34 -11 69 -15 52
-6 63 -4 59 7 -2 8 -15 16 -29 17 -13 2 -28 7 -34 12 -5 4 -25 11 -43 15 -60
13 -132 63 -104 73 6 2 12 8 12 13 0 13 41 72 58 82 6 4 12 14 12 21 0 18 49
61 91 80 27 13 59 16 135 14 l99 -3 9 -40 c10 -46 43 -122 57 -131 5 -3 9 -34
9 -69 0 -35 4 -66 9 -69 4 -3 11 -29 15 -58 8 -55 21 -88 36 -88 13 0 13 87 0
92 -14 5 -26 148 -11 148 6 0 11 -6 11 -13 0 -8 9 -22 20 -32 11 -10 20 -24
20 -32 0 -7 4 -13 10 -13 5 0 22 -26 36 -57 19 -39 58 -90 121 -155 51 -53 93
-99 93 -102 0 -4 -4 -14 -9 -24 -5 -9 -19 -39 -32 -65 -13 -26 -32 -62 -41
-79 -24 -43 -106 -126 -143 -144 -16 -7 -37 -18 -45 -23 -8 -5 -33 -17 -55
-26 -22 -10 -48 -22 -58 -27 -10 -5 -41 -12 -68 -15 -27 -3 -52 -10 -55 -14
-3 -5 -67 -9 -143 -9 -111 0 -141 3 -151 15 -7 8 -17 15 -22 15 -5 0 -35 22
-66 49 -31 26 -65 51 -75 54 -9 4 -20 15 -24 24 -8 24 -44 63 -57 63 -12 0
-66 51 -66 63 0 5 -37 49 -82 98 -46 50 -85 96 -87 102 -2 7 -34 41 -70 76
-38 37 -60 66 -53 69 6 2 12 10 12 17 0 7 16 27 36 45 l37 32 166 -4 166 -4
129 -67 c71 -37 135 -72 142 -78 8 -6 19 -7 29 -2 13 8 12 12 -9 32 -29 27
-252 141 -277 141 -10 0 -21 5 -24 10 -4 6 -66 10 -153 10 -112 0 -157 -4
-192 -17 -54 -20 -88 -48 -92 -77 -3 -20 -3 -20 -26 4 -13 14 -28 44 -35 68
-6 23 -14 42 -18 42 -4 0 -10 14 -14 30 -4 17 -18 51 -31 77 -14 26 -28 68
-31 95 -3 26 -10 48 -14 48 -15 0 -10 174 6 206 8 16 57 71 109 122 74 73 102
94 130 99 20 3 39 10 42 14 7 12 371 12 378 0z m1036 -241 c0 -5 -4 -10 -9
-10 -6 0 -16 -12 -23 -27 -7 -14 -22 -31 -33 -37 -11 -6 -23 -15 -26 -19 -19
-26 -71 -40 -164 -45 -97 -4 -100 -4 -84 14 9 11 19 27 22 37 4 9 15 20 24 24
10 4 34 19 53 34 31 25 45 29 120 32 47 1 93 4 103 5 9 1 17 -2 17 -8z m30
-170 c0 -66 -4 -120 -8 -120 -5 0 -12 -53 -16 -117 -3 -64 -11 -120 -16 -123
-5 -3 -12 -25 -16 -48 -4 -23 -10 -42 -14 -42 -4 0 -13 -27 -19 -60 -7 -33
-17 -62 -22 -66 -18 -11 -154 133 -185 195 -15 31 -42 75 -61 98 -18 23 -33
48 -33 55 0 8 -5 19 -12 26 -18 18 -23 165 -7 179 8 6 64 13 124 15 124 5 147
14 222 83 26 24 51 44 56 45 4 0 7 -54 7 -120z m-462 -80 c-2 -38 -5 -70 -8
-70 -12 0 -40 59 -46 98 -7 42 -6 42 25 42 l31 0 -2 -70z m-877 -637 c22 -23
39 -45 39 -50 0 -10 191 -199 206 -204 20 -7 96 -80 89 -87 -3 -4 -9 -2 -13 4
-4 6 -31 14 -61 17 -30 4 -57 10 -60 15 -3 5 -24 12 -47 15 -22 4 -62 18 -88
32 -26 14 -54 25 -62 25 -42 0 -154 146 -154 201 0 10 -4 19 -9 19 -6 0 -13
32 -17 70 -4 39 -11 73 -15 76 -5 3 -9 22 -9 42 l0 37 81 -85 c45 -47 99 -104
120 -127z m1279 5 c0 -4 14 -23 30 -41 17 -19 30 -39 30 -45 0 -6 8 -15 17
-20 14 -8 17 -32 21 -148 4 -131 3 -141 -18 -166 -12 -16 -28 -28 -36 -28 -8
0 -14 -4 -14 -9 0 -5 -13 -12 -30 -16 -16 -4 -30 -11 -30 -15 0 -5 -16 -12
-35 -16 -19 -3 -38 -10 -41 -15 -7 -12 -254 -12 -254 0 0 5 -21 12 -47 16 -27
4 -52 10 -58 15 -5 4 -41 10 -79 13 -37 4 -73 10 -80 15 -6 5 -33 15 -59 22
-27 7 -65 21 -85 32 l-36 18 112 0 c62 0 112 4 112 9 0 4 27 11 60 15 33 4 60
11 60 15 0 5 15 12 33 15 42 8 170 70 187 91 8 9 26 23 42 31 15 8 28 20 28
28 0 7 9 21 21 32 11 10 32 42 46 71 15 29 30 53 34 53 4 0 10 16 13 35 l7 35
24 -17 c13 -10 25 -21 25 -25z"/>
</g>
</svg>
